<?xml version="1.0" encoding="UTF-8" standalone="no"?>
<!-- Created with Inkscape (http://www.inkscape.org/) -->

<svg
   width="81.689507mm"
   height="185.55583mm"
   viewBox="0 0 81.689507 185.55583"
   version="1.1"
   id="svg135"
   xml:space="preserve"
   inkscape:export-filename="body.svg"
   inkscape:export-xdpi="96"
   inkscape:export-ydpi="96"
   xmlns:inkscape="http://www.inkscape.org/namespaces/inkscape"
   xmlns:sodipodi="http://sodipodi.sourceforge.net/DTD/sodipodi-0.dtd"
   xmlns="http://www.w3.org/2000/svg"
   xmlns:svg="http://www.w3.org/2000/svg"><sodipodi:namedview
     id="namedview137"
     pagecolor="#ffffff"
     bordercolor="#000000"
     borderopacity="0.25"
     inkscape:showpageshadow="2"
     inkscape:pageopacity="0.0"
     inkscape:pagecheckerboard="0"
     inkscape:deskcolor="#d1d1d1"
     inkscape:document-units="mm"
     showgrid="false" /><defs
     id="defs132" /><g
     inkscape:label="Layer 1"
     inkscape:groupmode="layer"
     id="layer1"
     transform="translate(-111.14384,-16.31575)"><path
       style="fill:#ffce63;fill-opacity:1;stroke-width:0.0879999"
       d="m 146.53902,42.339436 -5.43728,2.674069 -6.2395,2.540365 -2.28409,0.638533 -1.37875,0.480591 -1.84358,1.087239 -1.24481,1.110877 -1.23693,1.725404 -0.63817,0.937548 -0.8824,1.796309 -0.91391,2.61568 -0.0945,1.38662 0.12606,1.26058 0.40969,1.70176 0.10967,1.26985 0.0334,1.31475 -0.22284,1.31475 -0.41225,1.4596 -0.0111,1.21447 -0.0223,2.21725 0.078,2.75207 0.1337,1.83842 -0.17827,2.52922 -0.5571,2.08355 -1.19219,2.86348 -0.65737,2.35095 -0.72423,2.48466 -0.41225,2.35095 -0.23399,2.2841 -0.24512,2.42895 -0.078,2.93033 -0.35654,3.253459 -0.24512,2.38438 -0.13371,1.60444 -0.27855,1.11419 -0.52367,1.06963 -1.11419,1.22562 -1.76043,1.28132 -1.20333,0.84679 -0.75766,0.71309 -0.0891,0.14484 -0.2674,0.8245 -0.26741,0.43454 -0.63509,1.10306 -0.40111,0.66851 -0.31198,0.59053 -0.46796,0.53481 -0.24512,0.2117 -0.0446,0.078 -0.0418,0.20613 0.0613,0.16434 0.19498,0.11142 0.48189,0.0808 0.44011,-0.0334 0.44568,-0.11143 0.45682,-0.25626 0.37325,-0.36211 0.2117,-0.35655 0.10028,-0.35097 0.078,-0.32311 0.15599,-0.28412 0.29526,-0.37883 0.41225,-0.20613 0.45125,0.17827 0.23398,0.41783 0.0501,0.44011 0.0111,0.74094 -0.44568,1.94984 -1.34817,4.59048 -0.0871,0.54297 0.20484,0.59877 0.4412,0.17332 0.50422,-0.0945 0.57466,-0.67456 0.74651,-1.805 1.0362,-2.81891 0.41225,-0.99164 0.12256,-0.078 0.0334,0.32311 -0.3454,1.57102 -0.4791,2.17268 -0.33426,0.88022 -0.61657,1.46834 -0.43332,0.7721 -0.0709,0.4412 0.0709,0.35453 0.39392,0.17333 0.45696,0.008 0.43332,-0.21272 0.25211,-0.32302 0.18909,-0.3703 0.10242,-0.33089 0.1103,-0.33878 0.008,0.14969 0.0551,0.14969 0.29151,0.12606 0.4412,-0.008 0.6224,-0.32302 0.38605,-0.3703 0.34666,-0.6224 0.48059,-1.03209 0.24423,-0.53574 -0.0709,0.32302 0.11818,0.22847 0.41756,0.10242 0.69332,-0.33089 0.6224,-0.60665 0.38605,-0.5909 0.48059,-0.92966 0.45696,-1.07936 0.26787,-0.89816 0.15757,-0.52786 0.1103,-0.54362 0.37029,-1.57571 0.22848,-1.22906 0.0236,-1.78055 0.0867,-2.12721 0.0315,-2.45811 0.36241,-1.03209 0.76422,-1.2133 0.89028,-1.97751 1.58359,-3.151419 1.22905,-2.91507 1.16603,-3.54535 0.6618,-3.15142 0.29938,-1.84358 0.0945,-2.47387 0.15757,-2.5684 0.48847,-2.63144 0.25212,-2.0957 0.25211,-1.49692 0.31514,-1.73328 0.37817,-0.97695 0.80361,0.36242 1.00846,2.37932 0.75634,3.34051 0.45696,3.41929 -0.20485,1.89085 -0.28362,1.74904 -0.7721,2.96234 -1.5442,5.6568 -1.03997,4.979239 -0.50422,2.89931 -0.58302,2.93083 -0.0473,2.25326 v 3.15142 l -0.14181,3.54535 0.58301,4.86895 0.96351,6.78078 1.38161,5.30357 1.84956,5.83839 0.17827,0.73537 0.0669,2.87462 0.0668,3.27573 0.15599,3.78827 -0.15599,2.0724 -0.6908,3.63228 -0.80222,4.12253 -0.11142,3.18659 0.0223,2.7855 0.28969,2.02783 0.84679,2.33981 1.20333,5.21444 1.47074,6.19492 0.53481,2.7855 0.22284,1.58215 0.0223,1.27019 v 0.83007 l 0.0111,2.50137 -0.0446,0.88021 -0.25627,0.51253 -1.19218,1.23676 -1.2479,1.22562 -1.4596,1.33703 -1.25904,1.20333 -0.65738,0.7688 -0.10027,0.59052 0.25626,0.33426 0.25626,0.078 0.40112,-0.0334 0.31197,-0.16713 -0.30083,0.36768 -0.23398,0.36769 -0.0223,0.36768 0.18941,0.40111 0.31198,0.14485 0.3454,-0.0334 0.26741,-0.14484 -0.0557,0.46796 0.24512,0.46796 0.40111,0.25627 0.60167,0.0668 0.35654,-0.1337 0.35654,-0.26741 0.0223,0.26741 0.30083,0.40111 0.6908,0.14484 0.70195,-0.23398 0.3454,-0.5571 0.11142,-0.54595 0.28969,-0.44568 0.62395,-0.59053 0.24512,0.57939 0.10028,0.54595 -0.0111,0.38997 -0.36769,0.46796 -0.12256,0.36769 0.27855,0.61281 0.80222,0.18941 0.71309,-0.0668 1.13647,-0.24513 0.49025,-0.4791 0.11142,-0.53481 0.0111,-0.52368 0.37883,-0.73537 0.71308,-0.75765 0.40112,-0.53481 0.37882,-0.51253 0.11142,-1.28133 0.2117,-0.50139 0.44568,-0.75765 0.27855,-0.27855 0.35654,-0.28969 0.25626,-0.46796 0.11142,-0.37883 0.0446,-0.65737 -0.0111,-0.72423 -0.1337,-0.57938 -0.16713,-0.59052 -0.2117,-0.53482 -0.0668,-0.41225 -0.078,-0.84679 -0.0223,-0.73537 0.26741,-1.04734 0.0446,-0.81337 -0.14484,-0.72422 -0.20056,-0.32312 -0.17827,-0.98049 -0.0446,-1.03621 -0.0111,-1.70471 0.1337,-2.29525 0.078,-1.1699 0.0334,-0.86907 0.60276,-3.06688 0.61453,-2.48963 0.23635,-3.05687 0.17333,-3.57687 0.39393,-3.16717 -0.0945,-2.39509 -1.103,-3.41929 -0.12606,-1.44965 0.23636,-1.24481 0.37817,-1.63874 0.45696,-1.67026 0.18908,-2.06418 -0.0315,-3.05687 0.45696,-2.6472 0.39393,-1.55995 0.23635,-1.55996 0.15757,-1.03996 0.063,-2.72598 0.1103,-2.80477 -0.0158,-2.56841 0.14182,-2.31629 0.45695,-1.85934 0.39393,-2.22175 0.31514,-2.33205 0.0542,-0.95329 0.18384,-0.66295 0.12814,-0.35097 0.15042,-0.26184 0.1337,0.0334 0.1727,0.37325 0.19498,0.74651 0.17827,0.84679 0.50553,3.79017 0.59877,2.86779 0.15757,3.02537 0.15757,2.66295 -0.0473,3.54535 0.25212,3.67141 0.0788,2.69446 0.12605,3.00961 -0.063,1.52844 -0.0945,1.22905 0.15757,0.85088 0.59877,1.35512 0.50423,1.51268 0.063,0.96118 0.0945,1.13451 -0.31514,1.60723 -0.45696,1.48117 -0.50423,2.28478 0.0315,2.00115 -0.0473,2.94658 0.0158,3.38778 0.37817,1.68601 0.4412,2.17448 0.63028,2.71022 0.25212,1.46541 0.23636,3.68716 0.0473,1.74904 0.0473,2.48962 -0.59878,1.82783 0.0315,0.91391 0.3309,0.94543 0.31515,0.78785 -0.37818,1.26057 -0.23635,1.29208 -0.17333,1.5442 0.14181,0.78786 0.56726,0.61452 0.40968,0.45696 0.29939,0.78785 0.0315,1.22906 0.12606,0.45695 0.34665,0.6618 0.6618,0.81937 0.63029,0.58302 0.26787,0.40968 0.34665,0.97694 1.02421,0.63029 1.2133,0.0788 0.56726,-0.063 0.39393,-0.23635 0.13787,-0.17727 0.0867,-0.30726 -0.13788,-0.45696 -0.24817,-0.27181 -0.16545,-0.19303 -0.0827,-0.40574 0.0118,-0.5318 0.0709,-0.11424 0.51998,0.1812 0.28757,0.29545 0.13,0.29939 0.24817,0.58695 0.24424,0.46877 0.28363,0.18515 0.77209,-0.004 0.74847,-0.27574 0.27181,-0.25212 -0.0709,-0.28363 0.2009,0.0788 0.31908,0.0591 0.59089,-0.004 0.43726,-0.18121 0.39393,-0.35454 0.063,-0.26786 0.69331,0.0118 0.25999,-0.21272 0.19697,-0.43332 0.008,-0.30726 -0.0473,-0.25212 0.25211,-0.008 0.29939,-0.063 0.31514,-0.2206 0.0236,-0.31514 -1.59858,-1.87202 -0.59303,-0.8103 -3.797,-2.79691 -0.27653,-1.66056 -0.2583,-0.47877 0.063,-0.83513 0.15757,-0.60665 0.2915,-0.59089 -0.0788,-0.51998 -0.15757,-0.53574 -0.14181,-0.34666 -0.0394,-1.01633 0.10242,-1.57571 2.69083,-11.70009 0.84679,-3.36488 1.2479,-5.48184 0.0891,-2.31753 0.0446,-3.27573 -0.24512,-1.60444 -0.24513,-1.22562 -0.35654,-2.09469 -0.53481,-2.0724 -0.44568,-1.71586 0.1337,-2.09469 0.15599,-1.5153 0.15599,-1.71587 0.51253,-2.47351 0.15599,-1.67129 0.28969,-1.60445 0.51253,-1.9387 1.22561,-4.0111 0.75765,-2.38438 0.40112,-1.98327 0.73536,-2.67407 0.5571,-3.14203 0.15599,-3.23117 0.0891,-3.43172 0.20055,-4.07796 -0.33425,-2.02783 -1.00278,-4.9916 -0.6908,-1.82728 -0.33426,-1.44845 -0.11142,-1.671299 -0.35654,-2.33981 -0.26741,-2.80777 -0.5571,-4.07796 -0.95821,-3.20888 -0.28969,-1.35932 -0.11142,-1.73814 0.17828,-2.16154 0.40111,-2.31753 0.67678,-2.02955 0.51998,-1.81206 0.25212,-0.58302 0.4412,-0.50423 0.72482,1.89086 0.64605,2.74173 0.817,6.55805 0.40111,3.29802 0.62395,3.76598 0.82451,2.54036 1.44845,3.94426 1.82728,4.278509 1.51531,3.23117 0.24512,1.20333 0.0446,0.60166 -0.17827,1.38161 0.20056,2.40666 0.37882,2.40666 0.73537,2.45123 1.42617,3.27574 1.13648,1.06962 0.60167,0.15599 0.28969,-0.0891 0.46796,0.8245 0.91364,1.31475 0.84679,0.22284 0.49024,0.0223 0.60167,1.09191 0.37883,0.44568 0.5571,0.0223 0.44567,-0.31198 0.078,-0.52367 -0.11142,-0.76879 -0.24512,-0.75766 -0.36768,-0.73537 -0.23398,-0.57938 -0.16713,-0.64623 -0.15599,-0.77994 -0.0111,-0.89136 0.24512,0.81337 0.44568,1.02506 0.44568,0.81336 0.35654,0.59052 0.5571,0.45683 0.44568,0.0446 0.46796,-0.23398 0.17827,-0.46796 -0.0668,-0.66852 -0.26741,-0.80222 -0.40111,-1.06963 -0.4791,-1.81613 -0.30967,-0.84084 -0.4018,-1.77267 -0.0945,-0.7721 -0.008,-0.42544 0.12606,-0.25212 0.5121,-0.13393 0.46484,0.12606 0.33877,0.33878 0.38605,0.82724 0.14969,0.29151 0.51211,0.54362 0.29938,0.17333 0.57514,0.14181 0.52786,-0.063 0.32302,-0.12605 0.25999,-0.21272 0.0709,-0.12606 -0.0236,-0.0709 -0.15757,-0.14969 -0.25211,-0.35453 -0.51999,-0.65393 -0.64604,-1.03996 -0.24423,-0.55938 -0.28363,-0.61453 -0.19696,-0.50423 -0.32302,-0.49634 -0.98482,-0.87452 -1.12663,-0.81937 -1.19755,-0.85089 -1.11087,-1.05572 -0.39393,-0.53575 -0.23635,-1.89085 -0.61453,-2.85204 -0.20484,-2.07993 -0.0158,-2.363569 -0.26787,-4.04958 -0.42545,-3.46656 -0.39392,-2.94658 -0.53574,-2.61568 -0.97695,-2.48962 -1.16602,-2.89931 -0.14182,-1.51268 -0.29938,-3.08839 0.2206,-3.18294 -0.063,-3.5611 -0.23636,-1.29209 -0.7721,-2.20599 0.29939,-1.8751 0.31514,-1.16602 0.17333,-1.51269 -0.14182,-2.85203 -0.70907,-2.205997 -1.00849,-1.780653 -1.02421,-1.843579 -1.40238,-1.701769 -1.76479,-1.181782 -1.93813,-0.81937 -1.81207,-0.488471 -2.00115,-0.882399 -2.86779,-1.008454 -2.61568,-1.134512 -3.79747,-1.292082 -1.11875,-0.677555 -0.12605,-2.552653 0.11029,-1.528437 c 0.20025,-0.285597 0.74809,-0.645375 1.05573,-0.850883 l 0.5249,-1.285201 0.13834,-0.464076 0.0538,-1.079512 0.1103,-1.631015 -0.34059,0.702738 0.55373,0.215182 0.5571,-0.08913 0.42339,-0.44568 0.48583,-1.431493 0.54318,-1.006495 0.779,-1.222062 0.18908,-1.039969 -0.17333,-0.567256 -0.36241,-0.409686 -0.50423,-0.252114 -0.39392,-0.01577 0.25211,-3.214449 -0.0158,-1.654498 -0.40968,-1.465411 -1.15027,-1.812067 -1.27633,-1.039969 -1.38662,-0.945425 -1.11876,-0.425442 -1.76479,-0.393928 -1.5442,-0.236357 -2.61568,0.110299 -1.79631,0.252114 -1.59147,0.646041 -1.78055,1.197541 -1.05572,0.945427 -0.96119,1.213296 -0.59877,1.292084 -0.29939,2.190237 c 0.1136,1.484259 0.12917,2.276911 0.15759,3.592621 l -0.52643,-0.123383 -0.44568,0.245123 -0.26741,0.623948 0.12256,1.069628 0.38997,1.036201 0.63509,1.114198 0.53482,1.058484 0.32311,0.73537 0.16713,0.245123 0.46908,0.270112 0.57659,0.03371 0.47136,-0.08481 -0.30256,-0.553273 0.0223,2.629501 0.0891,0.401109 0.37184,0.877183 0.60977,0.538638 0.47067,0.407636 0.41957,0.471787 v 2.005552 c 0.0258,0.5307 -0.0379,1.055229 -0.0891,1.582179 z"
       id="path480"
       sodipodi:nodetypes="cccccccccccccccccccccccccccccccccccccccccccccccccccccccccccccccccccccccccccccccccccccccccccccccccccccccccccccccccccccccccccccccccccccccccccccccccccccccccccccccccccccccccccccccccccccccccccccccccccccccccccccccccccccccccccccccccccccccccccccccccccccccccccccccccccccccccccccccccccccccccccccccccccccccccccccccccccccccccccccccccccccccccccccccccccccccccccccccccccccccccccccccccccccccccccccccccccccccccccccccccccccccccccccccccccccccccccccccccccccccccccccccccccccccccccccccccccccccccccccccccccccccccccccccccccccccccccccccccccccccccccccccccccccccccccccccccccccccccccccccccccccccccccccccccccccc" /></g></svg>
